<svg xmlns="http://www.w3.org/2000/svg" viewBox="0 0 791.93 300.25"><defs><style>.cls-1,.cls-3{fill:#212529;}.cls-2{fill:#715aff;}.cls-3{font-size:204px;font-family:MADEEvolveSans-Bold, MADE Evolve Sans;font-weight:700;}.cls-4{letter-spacing:-0.01em;}.cls-5{letter-spacing:0em;}</style></defs><g id="Camada_2" data-name="Camada 2"><g id="Camada_1-2" data-name="Camada 1"><path class="cls-1" d="M597,299V133.9s2-17.75,22.16-36.77S673.32,51.7,664.81,0L779.4,173S685.18,168.75,597,299Z"/><path class="cls-2" d="M611.32,286s61.1-94,164.5-107.65l14.32,30S704,199,611.32,286Z"/><path class="cls-2" d="M613.56,288.93s76.09-80.12,169.64-72.51l8.73,30.88S709.12,222.46,613.56,288.93Z"/><path class="cls-2" d="M613.56,292.76s85.82-58.56,168.05-40.34l1.82,13S715.84,239.72,613.56,292.76Z"/><text class="cls-3" transform="translate(0 254.15)"><tspan class="cls-4">a</tspan><tspan x="97.92" y="0">the</tspan><tspan class="cls-5" x="380.04" y="0">n</tspan><tspan x="482.66" y="0">a</tspan></text></g></g></svg>