<svg xmlns="http://www.w3.org/2000/svg" viewBox="0 0 1922 1080"><defs><style>.cls-1{fill:#151d30;opacity:0.2;}</style></defs><g id="Camada_2" data-name="Camada 2"><g id="Camada_1-2" data-name="Camada 1"><path class="cls-1" d="M1846.59,1080H0V0H290.76c42.68,2.89,78.47,38.1,104.33,73.62,28.09,38.6,54,82.82,97.62,102.23,55.67,24.78,123.27,1.19,180,23.54,84.29,33.24,103,146.2,171.56,205.39,81.13,70,211.37,49,297.7,112.49,63.92,47,89.16,128.86,115,203.87,7.61,22.09,16,44.69,31.81,61.88,36.33,39.42,97.5,38,151.1,39.2a775.66,775.66,0,0,1,250.34,47.56c21.23,7.82,42.32,16.69,60.72,29.84C1807.48,940.07,1829.07,1012.52,1846.59,1080Z"/><path class="cls-1" d="M1922,925.65V1079H0V1H476.5c15.76,13.08,29.72,29.32,41.59,45.62,28.09,38.6,54,82.82,97.62,102.23C671.38,173.63,739,150,795.66,172.39c84.29,33.24,103,146.2,171.56,205.39,81.13,70,211.37,49,297.7,112.49,63.92,47,89.16,128.86,115,203.87,7.61,22.09,16,44.69,31.81,61.88,36.33,39.42,97.5,38,151.1,39.2a775.66,775.66,0,0,1,250.34,47.56c21.23,7.82,42.32,16.69,60.72,29.84C1893.83,886.87,1909.41,905.08,1922,925.65Z"/></g></g></svg>