<svg id="visual" viewBox="0 0 900 300" width="900" height="300" xmlns="http://www.w3.org/2000/svg" xmlns:xlink="http://www.w3.org/1999/xlink" version="1.1"><rect x="0" y="0" width="900" height="300" fill="#002233"></rect><path d="M0 178L25 173.8C50 169.7 100 161.3 150 154.3C200 147.3 250 141.7 300 144.7C350 147.7 400 159.3 450 161.7C500 164 550 157 600 153.3C650 149.7 700 149.3 750 144.5C800 139.7 850 130.3 875 125.7L900 121L900 0L875 0C850 0 800 0 750 0C700 0 650 0 600 0C550 0 500 0 450 0C400 0 350 0 300 0C250 0 200 0 150 0C100 0 50 0 25 0L0 0Z" fill="#0066FF" stroke-linecap="round" stroke-linejoin="miter"></path></svg>