<svg xmlns="http://www.w3.org/2000/svg" viewBox="0 0 1801.34 1685.45"><defs><style>.cls-1{fill:#e2e3e8;}.cls-14,.cls-2{fill:#0e1b47;}.cls-10,.cls-2,.cls-3,.cls-30,.cls-4,.cls-5{fill-rule:evenodd;}.cls-3,.cls-9{fill:#fff;}.cls-25,.cls-4{fill:#64bcbe;}.cls-5{fill:#0c4547;}.cls-6{fill:#00888d;}.cls-10,.cls-7{fill:#009fa4;}.cls-8{fill:#001047;}.cls-11{fill:#18898d;}.cls-12{fill:#86d0d4;}.cls-13{fill:#f8777c;}.cls-15{fill:#83c9cb;}.cls-16{fill:#231f20;}.cls-17{fill:#221e54;}.cls-18{fill:#fbcbb6;}.cls-19{fill:#ffe1d2;}.cls-20,.cls-30{fill:#222b54;}.cls-21{fill:#fda796;}.cls-22{fill:#ede3e2;}.cls-23{fill:#6bb4b6;}.cls-24{fill:#46a1a4;}.cls-26{fill:#fbadb0;}.cls-27{fill:#a59fa9;}.cls-28{fill:#f99296;}.cls-29{fill:#faffff;}</style></defs><g id="Camada_2" data-name="Camada 2"><g id="Ñëîé_1" data-name="Ñëîé 1"><path class="cls-1" d="M582.58,332.24c44-25.65,80.62-63.79,117.53-99.59,70.64-68.51,147.62-132,235.9-175.44,110.73-54.52,261.73-81.73,378.52-28.34C1376.15,57,1420.59,112,1462.69,165.09c72.68,91.65,149.08,181.4,218.41,275.49,93.39,127.22,122.41,296.08,76.56,445.42-17.29,56.29-44.4,109.39-62.48,165.44-35.14,108.93-18.35,232.52-54.51,337.46-30.84,89.5-112.67,161.38-194.52,203.61-97.49,50.31-208.07,69.12-317.31,79.09-50.23,4.59-100.92,7.44-151,1.56-76.72-9-132.25-42.72-199.27-76-52.58-26.11-117.12-27-176-26.8-127.6.38-270.23,27.61-386-41.39S59.64,1318.19,39.15,1188.55c-49.2-311.29,5.5-730.76,374-810.26,46.68-10.07,95.34-13.12,139.53-31.22A239.05,239.05,0,0,0,582.58,332.24Z"/><path class="cls-2" d="M240.67,1266.55c28.64,183.89,153.1,240,153.1,240s103.07-48.89,73.11-239.06c-34.88-221.33-154-274.83-154-274.83S207.2,1051.65,240.67,1266.55Z"/><path class="cls-3" d="M393.78,1506.58h0s-.47-.21-1.32-.63L355.7,1272.09,234.14,1189c0-1.08,0-2.15,0-3.21l121,82.73L311.88,993.32c.66-.42,1-.63,1-.63s.49.23,1.41.7l30.11,191.51,70.22-81.15c.42.79.85,1.57,1.27,2.37l-71,82,12.93,82.23.2.14-.14.24,22.46,142.89,91-106.76c.08,1.21.17,2.44.24,3.63l-90.48,106.17-.33-.33,13.89,88.37a1.74,1.74,0,0,1-.93,1.85Z"/><path class="cls-4" d="M146.17,1417.85c164.4,138,320.57,95.48,320.57,95.48s57.67-117.61-112.67-260C155.82,1087.53,6.56,1128.38,6.56,1128.38S-46,1256.63,146.17,1417.85Z"/><path class="cls-5" d="M466.74,1513.31h0s-.58.17-1.67.42L255.68,1338.53,81.91,1355.6l-2.43-2.76,173-17L6.09,1129.68c.29-.85.47-1.3.47-1.3s.63-.17,1.82-.44l171.47,143.49L183.19,1150c1,.36,2,.73,2.95,1.11l-3.38,122.79,73.62,61.61.3,0,0,.31,127.94,107.06,3.12-158.8c1,1,2,2,3,3l-3.1,157.89-.54,0L467.34,1512C467,1512.84,466.76,1513.28,466.74,1513.31Z"/><path class="cls-2" d="M249.61,1631.41c183.79,29.26,275.47-71.92,275.47-71.92s-14.85-113.11-205-143c-221.34-34.83-308.84,62-308.84,62S34.83,1597.22,249.61,1631.41Z"/><path class="cls-3" d="M525.08,1559.48h0s-.34.38-1,1.06l-233.84-36.89L173.8,1613.79l-3.06-1,115.91-89.72L11.49,1479.68c-.2-.76-.28-1.18-.28-1.18s.36-.4,1.09-1.14l191.5,30.21-55.64-91.76c.88-.16,1.75-.33,2.65-.48l56.24,92.76,82.22,13,.2-.15.18.21,142.88,22.54-73.63-119.4,3.53.89,73.22,118.72-.41.22L523.6,1558a1.73,1.73,0,0,1,1.48,1.45Z"/><path class="cls-6" d="M746.44,1163.3s51-187.71,186.41-191.64c0,0-125.58,41.65-158.94,191.64C772,1164.07,746.44,1163.3,746.44,1163.3Z"/><path class="cls-7" d="M717,1173.89S811.19,741.94,991.72,632c0-2-192.06,46.65-313.84,531.86C679.72,1160.15,717,1173.89,717,1173.89Z"/><path class="cls-6" d="M617.91,1181.52s141.68-376.3,58.26-549.58c1-1.5,123.52,130.68-23.42,561.28C653.16,1189.49,617.91,1181.52,617.91,1181.52Z"/><path class="cls-7" d="M430.2,1163.84S396.84,791,261.44,606.46c0-2,137.36,333.78,125.59,567.43C389,1173.89,430.2,1163.84,430.2,1163.84Z"/><path class="cls-6" d="M578.62,1165.92s40.55-182,193.61-260.49C770.92,908,623.09,1039,599.55,1165.92S578.62,1165.92,578.62,1165.92Z"/><path class="cls-7" d="M620.32,1117.58s-70.47-216.32,41.48-394c.25,3.57-73.66,233-19.49,381S620.32,1117.58,620.32,1117.58Z"/><path class="cls-6" d="M543.29,1163.3s10.47-513.13-40.55-582.51c1.31,0,74.39,5.23,75.79,577.28C578.62,1158.07,543.29,1163.3,543.29,1163.3Z"/><path class="cls-6" d="M434.18,1163.3s-51-187.71-186.41-191.64c0,0,125.58,41.65,158.94,191.64C408.67,1164.07,434.18,1163.3,434.18,1163.3Z"/><path class="cls-7" d="M687.31,1163.65S741,1028.5,822.7,1063.89c-2,0-74.56-6.7-109.88,99.76C712.82,1164.07,687.31,1163.65,687.31,1163.65Z"/><path class="cls-6" d="M661.8,1163.84S695.16,791,830.55,606.46c0-2-137.36,333.78-125.58,567.43C703,1173.89,661.8,1163.84,661.8,1163.84Z"/><path class="cls-6" d="M463.61,1173.89S369.43,741.94,188.9,632c0-2,192.06,46.65,313.84,531.86C500.9,1160.15,463.61,1173.89,463.61,1173.89Z"/><path class="cls-6" d="M587.64,1199.72S691,827,596.11,668.13c.8-1.52,129.6,114.54,25.91,539.78C622.1,1204.31,587.64,1199.72,587.64,1199.72Z"/><path class="cls-7" d="M562.71,1181.52S421,805.22,504.45,631.94c-1-1.5-123.52,130.68,23.42,561.28C527.46,1189.49,562.71,1181.52,562.71,1181.52Z"/><path class="cls-6" d="M433.06,1205.27s-95.3-160.19-265.22-187c2.06,2.08,183.35,80.26,245.33,193.53S433.06,1205.27,433.06,1205.27Z"/><path class="cls-7" d="M378.35,1172.38S377.81,944.86,216,811c.88,3.47,142.68,198.35,137.4,355.88S378.35,1172.38,378.35,1172.38Z"/><path class="cls-6" d="M471.15,1159.28s87.35-315.17,7.15-449.46c.68-1.28,109.59,96.85,21.92,456.39C500.28,1163.16,471.15,1159.28,471.15,1159.28Z"/><path class="cls-8" d="M421.31,1640.23H714.86c51.8-38.18,84.31-92.08,84.31-136.52V1149.56H331.55v354.15C331.55,1548.15,367,1602.05,421.31,1640.23Z"/><rect class="cls-9" x="331.55" y="1179.58" width="467.62" height="35.04"/><rect class="cls-9" x="331.55" y="1247.15" width="467.62" height="35.03"/><rect class="cls-9" x="331.55" y="1314.71" width="467.62" height="35.03"/><rect class="cls-9" x="331.55" y="1382.27" width="467.62" height="35.04"/><rect class="cls-9" x="331.55" y="1449.83" width="467.62" height="35.03"/><path class="cls-9" d="M769.4,1585H363.6a245.13,245.13,0,0,0,32.34,35H739A233.91,233.91,0,0,0,769.4,1585Z"/><path class="cls-9" d="M798.12,1517.38H332.7a126.56,126.56,0,0,0,11.09,35H787.86A133.63,133.63,0,0,0,798.12,1517.38Z"/><path class="cls-10" d="M1416,1220.48c35,187.84-66.33,290.3-66.33,290.3S1233.22,1504,1197.4,1309.6c-41.7-226.24,55.31-324.06,55.31-324.06S1375.12,1001,1416,1220.48Z"/><path class="cls-5" d="M1349.62,1510.77h0s.38-.38,1-1.12l-44.14-239,89.3-127.23c-.36-1-.72-2.07-1.08-3.09L1305.87,1267l-51.95-281.25c-.78-.14-1.21-.2-1.21-.2s-.4.41-1.14,1.22l36.15,195.73-95.62-50.59c-.14.93-.29,1.85-.42,2.77l96.66,51.14,15.52,84-.15.22.22.17,27,146-124.46-67.1c.33,1.2.66,2.41,1,3.59l123.74,66.72.22-.44,16.92,91.6C1349.16,1510.75,1349.59,1510.77,1349.62,1510.77Z"/><path class="cls-2" d="M1560.79,1345.32C1535.3,1509,1424.5,1559,1424.5,1559s-91.76-43.52-65.08-212.82c31-197,137.06-244.66,137.06-244.66S1590.59,1154,1560.79,1345.32Z"/><path class="cls-3" d="M1424.49,1559h0s.42-.19,1.17-.56l32.72-208.19,108.21-74c0-1,0-1.92,0-2.86l-107.72,73.64,38.5-245c-.59-.37-.92-.55-.92-.55s-.44.2-1.26.61l-26.81,170.5-62.51-72.25c-.38.71-.76,1.4-1.13,2.12l63.19,73-11.5,73.2-.18.13.12.21-20,127.21-81-95c-.07,1.08-.15,2.17-.21,3.24l80.54,94.51.3-.29-12.36,78.67a1.54,1.54,0,0,0,.82,1.65Z"/><path class="cls-4" d="M1627.13,1494c-168,91-296.63,26.09-296.63,26.09s-29.32-112.87,144.65-206.7c202.48-109.21,325.37-47,325.37-47S1823.45,1387.62,1627.13,1494Z"/><path class="cls-5" d="M1330.5,1520v0s.48.24,1.39.66l213.87-115.47,148.51,45.89,2.61-2L1549,1403.48l251.67-135.87c-.11-.79-.19-1.22-.19-1.22s-.51-.26-1.51-.71l-175.15,94.56,18.76-106.54-2.77.45-19,107.69-75.2,40.6-.25-.07-.09.26-130.68,70.55,25.6-139c-1,.68-2.09,1.36-3.11,2.06l-25.46,138.26.49.07-82,44.25C1330.38,1519.58,1330.49,1520,1330.5,1520Z"/><path class="cls-2" d="M1552.84,1670.14c-163.62,26-245.23-64-245.23-64s13.21-100.69,182.52-127.34c197-31,274.94,55.24,274.94,55.24S1744,1639.7,1552.84,1670.14Z"/><path class="cls-3" d="M1307.6,1606.1h0s.3.34.89.94l208.17-32.84,103.66,80.24,2.72-.87-103.19-79.87,245-38.65c.17-.68.25-1,.25-1s-.33-.36-1-1l-170.48,26.89,49.54-81.69-2.36-.43-50.07,82.58-73.19,11.55-.18-.14-.16.19L1390,1592l65.54-106.3c-1,.26-2.11.52-3.14.79l-65.19,105.69.37.2-78.66,12.41a1.55,1.55,0,0,0-1.32,1.29Z"/><path class="cls-11" d="M786.49,964.45s-30,84.12-11.5,109.54c-1,2.06,295,6.44,295,6.44s19.08-28.8-6-98.4C1062.51,985.51,786.49,964.45,786.49,964.45Z"/><path class="cls-9" d="M1288.54,1084.28h-684c-1.26,0-2.44.37-3.69.46v157.58c1.25.09,2.43.46,3.69.46h684c35.54,0,64.62-35.66,64.62-79.25S1324.08,1084.28,1288.54,1084.28Z"/><path class="cls-12" d="M600.86,1116.93h743.5a47.34,47.34,0,0,0-7.48-6.42h-736Z"/><path class="cls-12" d="M600.86,1197.77H1347a31.41,31.41,0,0,0,3.73-6.42H600.86Z"/><path class="cls-12" d="M600.86,1145.31h750.39c-.43-2.21-1.06-4.3-1.63-6.43H600.86Z"/><path class="cls-12" d="M600.86,1169.4h751.81c.12-2,.49-3.86.49-5.87,0-.19-.05-.37-.05-.56H600.86Z"/><path class="cls-12" d="M600.86,1220.79h734.61c1.55-2,3-4.21,4.33-6.42H600.86Z"/><path class="cls-13" d="M1273.82,1260.94H595.73c-.64,0-2.14-.12-2.79-.2a12.79,12.79,0,0,1-13.16-12.82c0-7.71,8.86-13.58,17-12.62l677,0c40.59,0,73.63-31,73.63-69.07s-33-69.06-73.63-69.06H595.73c-6.83.61-14.53-5.37-14.72-12.47a12.61,12.61,0,0,1,12.68-13.06l680.13-.16c55.7,0,101,42.51,101,94.75S1329.52,1260.94,1273.82,1260.94Z"/><path class="cls-9" d="M1337.18,1464H581.13c-1.4,0-2.7.45-4.07.55v191.55c1.37.11,2.67.56,4.07.56h756.05c39.29,0,71.43-43.35,71.43-96.33S1376.47,1464,1337.18,1464Z"/><path class="cls-12" d="M577.06,1503.73h821.83a54.15,54.15,0,0,0-8.27-7.81H577.06Z"/><path class="cls-12" d="M577.06,1602H1401.8a39,39,0,0,0,4.11-7.81H577.06Z"/><path class="cls-12" d="M577.06,1538.22H1406.5c-.47-2.68-1.17-5.23-1.8-7.81H577.06Z"/><path class="cls-12" d="M577.06,1567.5h831c.13-2.4.54-4.69.54-7.13,0-.24,0-.45,0-.68H577.06Z"/><path class="cls-12" d="M577.06,1630h812c1.71-2.47,3.26-5.12,4.78-7.81H577.06Z"/><path class="cls-14" d="M1320.91,1678.77H571.38c-.71,0-2.37-.15-3.08-.24-8.37,0-14.55-7-14.55-15.59,0-9.36,9.79-16.5,18.81-15.34l748.35-.06c44.87,0,81.39-37.67,81.39-84s-36.52-83.94-81.39-83.94H571.38c-7.54.73-16.06-6.53-16.27-15.16s5.68-15.68,14-15.87l751.78-.2c61.58,0,111.68,51.67,111.68,115.17S1382.49,1678.77,1320.91,1678.77Z"/><path class="cls-9" d="M648.16,1273.93h684c1.27,0,2.45.36,3.69.45V1430c-1.24.09-2.42.45-3.69.45h-684c-35.54,0-64.62-35.22-64.62-78.28S612.62,1273.93,648.16,1273.93Z"/><path class="cls-12" d="M1335.87,1306.18H592.34a46.88,46.88,0,0,1,7.47-6.34h736.06Z"/><path class="cls-12" d="M1335.87,1386H589.7a30.38,30.38,0,0,1-3.72-6.34h749.89Z"/><path class="cls-12" d="M1335.87,1334.21H585.45c.42-2.18,1-4.25,1.63-6.35h748.79Z"/><path class="cls-12" d="M1335.87,1358H584c-.13-2-.49-3.82-.49-5.8,0-.19,0-.36.05-.55h752.28Z"/><path class="cls-12" d="M1335.87,1408.77H601.23c-1.56-2-3-4.16-4.33-6.34h739Z"/><path class="cls-15" d="M662.88,1448.43H1341c.65,0,2.15-.12,2.79-.2,7.57,0,13.16-5.65,13.16-12.66,0-7.61-8.85-13.41-17-12.47l-677.05,0c-40.59,0-73.63-30.61-73.63-68.22s33-68.21,73.63-68.21H1341c6.83.59,14.53-5.31,14.72-12.32s-5.14-12.74-12.68-12.91l-680.16-.16c-55.71,0-101,42-101,93.6S607.17,1448.43,662.88,1448.43Z"/><path class="cls-16" d="M886.42,1073.94v0S886.45,1074,886.42,1073.94Z"/><path class="cls-14" d="M759.49,998.59v.07S759.53,998.61,759.49,998.59Z"/><path class="cls-14" d="M1165.36,782.55c-4.5-4.35-9.67-9.08-11.12-15.87a32.78,32.78,0,0,1-.16-10.87,50.2,50.2,0,0,1,2.51-10.6,40.09,40.09,0,0,1,4.51-9.14,83.28,83.28,0,0,1,5.88-7.42,68.24,68.24,0,0,0,5.89-7.66,79.79,79.79,0,0,0,4.75-8.85c6-12.72,11.06-26.25,12.32-40.68a82.45,82.45,0,0,0-.8-20.82,45.25,45.25,0,0,0-6.68-17.72c-4.18-6.17-9.72-11-15-15.81-5.53-5-11.16-10-15.48-16.41a39.25,39.25,0,0,1-6.84-22.87,59,59,0,0,1,2.69-15.81,22.51,22.51,0,0,1,3.16-6.54,51.59,51.59,0,0,1,5.17-6.21,71.18,71.18,0,0,1,5.43-5.15c2.19-1.85,4.44-3.55,6.48-5.62a58.94,58.94,0,0,0,11.34-16.67,69.38,69.38,0,0,0,5.76-37.43,63.91,63.91,0,0,0-13.42-31.74,57.23,57.23,0,0,0-11.9-11.14,19.31,19.31,0,0,1-5.94-6.77c-3.79-7.12-3.28-15.91-1-23.51a65.52,65.52,0,0,1,7.63-16.09c1-1.5,2-3,3-4.41s2.23-2.85,3.17-4.42q2.6-4.29,5-8.75a125.83,125.83,0,0,0,12.15-31.89,80.68,80.68,0,0,0,1.54-26.57,67.33,67.33,0,0,0-6.27-21.44A72,72,0,0,0,1167.71,281a84.33,84.33,0,0,0-13.64-12.11,87.56,87.56,0,0,0-13.22-7.81c-1.85-.88-3.72-1.68-5.63-2.39-1.69-.62-3.4-1.07-5.11-1.59a37.75,37.75,0,0,1-20.87-15.56c-4.16-6.44-6.47-14.1-7.85-21.84-1.13-6.27-1.48-12.67-2.55-18.94-.28-1.66-.61-3.29-.88-4.95q-.74-4.54-1.68-9-1.82-8.56-4.46-16.86a157,157,0,0,0-12.12-28.16,145.82,145.82,0,0,0-14.57-21.54,138.55,138.55,0,0,0-14.8-15.51,126.87,126.87,0,0,0-12.79-10.1,95.1,95.1,0,0,0-8.58-5.29c-3.31-1.8-6.71-3.43-10.1-5a215.21,215.21,0,0,0-32.8-12.45A177,177,0,0,0,955.75,66,157.57,157.57,0,0,0,928,65.53a151.49,151.49,0,0,0-25.06,4,156.85,156.85,0,0,0-22.31,7.33,166.09,166.09,0,0,0-19.53,9.64,176.42,176.42,0,0,0-16.59,10.87q-7,5.13-13.54,11-5.38,4.8-10.45,10.06-3.75,3.9-7.27,8.07c-1.38,1.64-2.73,3.31-4,5a5.35,5.35,0,0,1-.76,1s0,.06-.06.08h0c-.1,0-.56-.18-.67-.21l-1.33-.4a73.29,73.29,0,0,0-8.75-2,61,61,0,0,0-29.59,2.35,64.77,64.77,0,0,0-19.34,10.78,74.21,74.21,0,0,0-5.64,5c-.62.61-1.23,1.23-1.84,1.85a46.64,46.64,0,0,0-4.56,5.91c-6.83,9.76-12.07,21.09-13.75,33.46a71.48,71.48,0,0,0,2.1,28.27,130.66,130.66,0,0,0,8.36,21.5c.65,1.39,1.31,2.77,2,4.16a35.38,35.38,0,0,1,2.34,7,34.52,34.52,0,0,1,0,15.5c-2.37,9.88-8.83,17.82-15.73,24.11-7.5,6.85-16.12,11.79-24,18.07-3.15,2.51-6.43,4.79-9.4,7.6a63.5,63.5,0,0,0-10.08,12.31,66.33,66.33,0,0,0-9.76,29.59,67.17,67.17,0,0,0,5,31.48,64,64,0,0,0,9.34,15.64,52.82,52.82,0,0,0,6.87,7,32.12,32.12,0,0,0,8.4,5.54c3,1.18,6.15,1,9.17,1.91a13.49,13.49,0,0,1,7.11,5.14,12.46,12.46,0,0,1,2.43,7.69,11.73,11.73,0,0,1-3.1,7.22c-3.57,4-8.53,6.23-13.05,8.58a80.63,80.63,0,0,0-14.24,9.37,59.27,59.27,0,0,0-12,13.18c-3.63,5.54-6,12-8,18.45a76.32,76.32,0,0,0-3.84,21.62c-.07,7.45,1.78,14.81,3.93,21.78a46.3,46.3,0,0,0,4.26,9.48c1.51,2.6,3.11,5.19,4.85,7.6a65.15,65.15,0,0,0,6.82,7.61c6.29,6.35,12.88,12.33,19.58,18.13,2.43,2.11,5,4,7.42,6.2A34.3,34.3,0,0,1,719,595.5a35.44,35.44,0,0,1,1.34,17.79c-1.27,6.71-4.56,12.65-8.17,18.08-1.83,2.75-3.7,5.5-5.74,8a70.61,70.61,0,0,1-6.19,6.72c-4.32,4.19-8.92,8-13,12.55-8.7,9.71-13.77,23.14-14.47,36.87A70.36,70.36,0,0,0,680,730a59.87,59.87,0,0,0,9.64,14.12,51.58,51.58,0,0,0,6.28,5.75c2.55,2,5.27,3.64,7.93,5.39,5.5,3.61,11.08,7.35,15.71,12.33,3.86,4.16,7.3,10,6.69,16.31-.69,7.12-6.29,11.4-11.14,15-5.76,4.32-11.54,8.6-17.26,13-5.08,3.87-10.11,8-14.27,13.1a49.07,49.07,0,0,0-7.27,12.54,71.64,71.64,0,0,0-4.81,27.17,84.61,84.61,0,0,0,5,28.16,62.44,62.44,0,0,0,14.16,23,43.77,43.77,0,0,0,10.24,7.63c3.52,1.88,8,2.85,10.37,6.62,1.8,2.84,1.28,6.32.17,9.34-1.51,4.1-3.86,7.79-6,11.48a79.45,79.45,0,0,0-6.58,13.1,43.32,43.32,0,0,0-2.36,16.56c.34,6.45,2.49,13.45,6.93,17.82.47.46,1,.28,1.64.27l5.74-.08q9.75-.12,19.52-.21c6.73-.05,13.46-.1,20.19-.06,2.09,0,4.17,0,6.26.09.62,0,1.23,0,1.85.09a2.52,2.52,0,0,1,.86.12c-.7-5.39,1-11.09,2.63-16.07s3.64-9.54,5.63-14.23c.34-.79.68-1.58,1-2.39a4,4,0,0,0,.36-1.29,74.42,74.42,0,0,0,10.29,22.61,83.15,83.15,0,0,0,10.91,13.46c.59.58,1.19,1.14,1.81,1.67.2.16.58.58.84.58a15.14,15.14,0,0,1-.38-5.37,49.88,49.88,0,0,1,1.05-6.77,129.78,129.78,0,0,1,3.61-12.8c.41-1.27.87-2.52,1.23-3.8-1.33,5.47-.6,11.32.92,16.64a64,64,0,0,0,5.5,13.18c.64,1.17,1.3,2.31,2,3.43.18.29.27.54.55.62a6.25,6.25,0,0,0,1.56,0l3,.06,20,.4,17,.34c.31,0,1,.17,1.29,0s.67-1.31.84-1.68l4.45-9.55.34-.73,1.29,9.19c.27,2,.55,3.94.82,5.92.08.55.14,1.12.24,1.66,0,.08,0,.28,0,.32s.4,0,.49,0l1.14,0,4.05.08,14.3.25,20.13.35,23.51.38q12,.2,24.08.36,11,.16,22,.28,8.68.11,17.37.15c3.34,0,6.69.05,10-.06.35,0,.7,0,1.05-.05s.39,0,.39-.5c0-6.58.55-13.65,3.18-19.64a15.68,15.68,0,0,1,4.78-6.41,25.75,25.75,0,0,0,1.77,15.8,22.75,22.75,0,0,0,2.71,4.38,8.26,8.26,0,0,0,1.78,1.94,1,1,0,0,0,.61.08l2.17-.1,8.1-.37c7-.33,13.94-.68,20.9-1.15,2.3-.16,4.6-.29,6.89-.6.23,0,1.09,0,1.25-.26s0-.61,0-.79a11.27,11.27,0,0,1,.26-2.1,60.19,60.19,0,0,1,4.18-11.78c1.3-3,2.69-5.95,4.14-8.86.08-.15.15-.31.23-.47q2.28,9.36,4.55,18.71a3.1,3.1,0,0,0,.22.92c.06.06.14,0,.23.06a12.94,12.94,0,0,0,2.32.31c3.21.42,6.41.82,9.62,1.2,3.78.44,7.56.86,11.34,1.16,1.49.12,3,.22,4.48.26a9.79,9.79,0,0,0,2.65-.12.63.63,0,0,0,.43-.24c.08-.12,0-.56,0-.72,0-.37,0-.75,0-1.13,0-.92.1-1.83.17-2.75.25-3.56.66-7.12,1.18-10.65a199.35,199.35,0,0,1,4.16-20.35c1.42-5.53,3-11,4.86-16.37a65.11,65.11,0,0,1,3.49-8.93,3.25,3.25,0,0,1,.41-.67c2.29,4.67,3.39,10.07,4.18,15.28a161.24,161.24,0,0,1,1.57,18.24c.19,5.19.21,10.38.1,15.57,0,1.67-.09,3.35-.16,5,0,.51-.05,1-.07,1.51a2.6,2.6,0,0,0,0,.73c.09.17.74.12.94.13l3.3.28,11.23,1,13.11,1.1,9.84.83,1.34.11a2.69,2.69,0,0,0,.74.07s.09,0,.12,0c.23-.1.53-.72.68-.94.32-.45.63-.9.93-1.36a59.79,59.79,0,0,0,3.31-5.58,60.81,60.81,0,0,0,6.47-21.45,69.49,69.49,0,0,0-.48-18.22,67.36,67.36,0,0,0-2.83-11.63c-.27-.77-.57-1.53-.88-2.29a57.76,57.76,0,0,1-3.22-11.2,41.87,41.87,0,0,1,.59-18.7,52.15,52.15,0,0,1,5.81-12.76c1-1.61,2-3.2,2.89-4.85,1.43-2.59,2.55-5.39,3.86-8,3.71-7.53,7.83-14.82,11-22.69a86.16,86.16,0,0,0,5.87-26.85,70.3,70.3,0,0,0-3.72-27.14,66.23,66.23,0,0,0-5.54-11.87,52.71,52.71,0,0,0-7.36-9.48C1170.87,787.7,1168.08,785.18,1165.36,782.55Z"/><path class="cls-14" d="M669.4,397.12a2.43,2.43,0,0,1-2.26-1.81c-17.69-57.17,24.67-81.18,25.1-81.42a2.29,2.29,0,0,1,3.2,1.24,2.85,2.85,0,0,1-1.1,3.6c-1.62.89-39,22.24-22.69,74.81a2.78,2.78,0,0,1-1.46,3.43A2.25,2.25,0,0,1,669.4,397.12Z"/><path class="cls-14" d="M1171.77,280.11a2.31,2.31,0,0,1-1.94-1.13c-15.13-23.83-26-26.36-44-28.77l-.21,0c-28.2-6.81-39.65-41.77-40.12-43.26a2.8,2.8,0,0,1,1.44-3.44,2.34,2.34,0,0,1,3.06,1.62c.1.34,11,33.55,36.51,39.79,18.69,2.52,31,5.41,47.22,31a2.92,2.92,0,0,1-.56,3.75A2.18,2.18,0,0,1,1171.77,280.11Z"/><path class="cls-14" d="M811.05,136.39a2.18,2.18,0,0,1-1.67-.82c-18.74-22.64-42.21-13-42.45-12.87a2.21,2.21,0,0,1-2.94-1.49,2.67,2.67,0,0,1,1.32-3.31,41.45,41.45,0,0,1,43.19,9.61c.2-12.74,4.58-39.78,37-47.25a2.32,2.32,0,0,1,2.7,2,2.6,2.6,0,0,1-1.78,3c-38.28,8.82-33.33,46.5-33.1,48.11a2.66,2.66,0,0,1-1.25,2.71A2,2,0,0,1,811.05,136.39Z"/><path class="cls-17" d="M753.42,957.38l-6-11.35-18.73,9.88C736.94,956.42,745.18,956.93,753.42,957.38Z"/><path class="cls-17" d="M1086.5,957.38l6-11.35,18.73,9.88C1103,956.42,1094.75,956.93,1086.5,957.38Z"/><path class="cls-18" d="M579.75,799.59a44,44,0,0,0-2.57-7.08,47,47,0,0,1,.82,6.85Z"/><path class="cls-9" d="M1019.91,686.39c-.38-7.94-3.86-14.93-9-18.29-18.39-11.89-48.76-27-87.39-27.34H919.8c-38.63.35-69,15.45-87.38,27.34-5.2,3.36-8.68,10.35-9.06,18.29-5.39,112.31-11,220.71-57,327.08-.42,1,39.74,12.87,40.81,13.16,74.94,20.08,182.57,21.43,228.87,0,1-.47,41.23-12.19,40.81-13.16C1030.89,907.1,1025.31,798.7,1019.91,686.39Z"/><path class="cls-9" d="M1008,885.05c9.18-4.7,13.85-11.52,15.7-19.43,2.94-12.58-1.26-27.9-5.76-41.76-3.93-12.08-9.73-23.55-12.79-35.87-6.72-27,.17-55.21,4.44-82.7,4.36-28,7.16-59.44,6.47-89.57-86.65-35.11-153.4-14-179-2.69-.93,31,1.91,63.43,6.4,92.26,4.27,27.49,11.16,55.7,4.44,82.7-3.07,12.32-8.87,23.79-12.79,35.87-4.5,13.86-8.7,29.18-5.76,41.76,1.85,7.91,6.52,14.73,15.7,19.43,11.72,6,24.8,9.94,38.22,12.53l104-4.29A125.71,125.71,0,0,0,1008,885.05Z"/><path class="cls-18" d="M924.61,502.83a124.91,124.91,0,0,0,22.77-2.1V486.37c0-12.65-8.29-22.91-18.52-22.91s-18.52,10.26-18.52,22.91V502A124.83,124.83,0,0,0,924.61,502.83Z"/><ellipse class="cls-19" cx="1066.46" cy="390.14" rx="21.4" ry="20.58"/><path class="cls-16" d="M783.23,318a.07.07,0,0,1,0,.05S783.27,318,783.23,318Z"/><polygon class="cls-9" points="833.93 572.72 720.04 734 799.72 765.87 847.53 605.28 833.93 572.72"/><polygon class="cls-9" points="1020.7 571.02 1133.16 734 1053.48 765.87 1005.67 605.28 1020.7 571.02"/><path class="cls-19" d="M950.12,550.46a2.77,2.77,0,0,1-2.74-2.82V488.76c0-14-8.29-25.3-18.52-25.3s-18.52,11.33-18.52,25.3v58.46h0a2.8,2.8,0,0,1-2.82,2.8l-30-.34c3.64,17.88,24.12,36.31,51.35,36.31s50.19-17.31,53.83-35.19Z"/><path class="cls-18" d="M928.86,463.46c-10.23,0-18.52,11.33-18.52,25.3V501.2a127.15,127.15,0,0,0,14.27.82,124.91,124.91,0,0,0,22.77-2.09V488.76C947.38,474.79,939.09,463.46,928.86,463.46Z"/><path class="cls-19" d="M799.21,390.14c0,11.37-9.58,20.58-21.4,20.58s-21.4-9.21-21.4-20.58,9.59-20.58,21.4-20.58S799.21,378.77,799.21,390.14Z"/><path class="cls-18" d="M794,388.22a13.19,13.19,0,1,1-13.17-12.67A12.93,12.93,0,0,1,794,388.22Z"/><path class="cls-18" d="M1050.28,388.22a13.18,13.18,0,1,0,13.17-12.67A12.92,12.92,0,0,0,1050.28,388.22Z"/><path class="cls-19" d="M1073.87,334.78c-.94,73.64-65,158.59-149.26,158.59s-152-85.05-155.85-158.59c-5.49-104.82,73.79-169.57,158-169.57S1075,248.62,1073.87,334.78Z"/><path class="cls-20" d="M1042.17,380.74a2.47,2.47,0,0,0-3.3-1.14l-9.77,4.77a54.89,54.89,0,0,0-13.28-7.39l3.9-8.64a2.47,2.47,0,0,0-1.24-3.27,2.42,2.42,0,0,0-1-.22,2.47,2.47,0,0,0-2.25,1.45l-4.13,9.15a48.63,48.63,0,0,0-12.69-1.67,53.68,53.68,0,0,0-11,1.18l-2.5-8.19A2.47,2.47,0,0,0,982.5,365a2.57,2.57,0,0,0-.72.11,2.47,2.47,0,0,0-1.64,3.09l2.44,8a64.52,64.52,0,0,0-14.39,6.34L959.71,377a2.4,2.4,0,0,0-1.35-.41,2.47,2.47,0,0,0-1.36,4.53l7.06,4.64a2.46,2.46,0,0,0,3.76,2.94c1.31-1,32.53-24.41,63.22,3.7a2.47,2.47,0,1,0,3.34-3.64c-.35-.32-.7-.61-1.05-.92L1041,384A2.47,2.47,0,0,0,1042.17,380.74Z"/><path class="cls-21" d="M924.73,465.66a34.64,34.64,0,0,1-18.49-5.35,1.66,1.66,0,0,1-.41-2.29,1.64,1.64,0,0,1,2.29-.42,31.33,31.33,0,0,0,32.12.63,1.65,1.65,0,0,1,1.59,2.89A35.21,35.21,0,0,1,924.73,465.66Z"/><path class="cls-21" d="M1045.27,422.28A34.75,34.75,0,1,0,997,471C1016.17,458.45,1032.58,441.46,1045.27,422.28Z"/><path class="cls-20" d="M888.19,377.66a2.46,2.46,0,0,0-3.42-.7l-8.47,5.56a64.73,64.73,0,0,0-14.39-6.34l2.43-8a2.47,2.47,0,0,0-1.64-3.09A2.57,2.57,0,0,0,862,365a2.49,2.49,0,0,0-2.36,1.75l-2.5,8.19a53.66,53.66,0,0,0-11-1.18,48.76,48.76,0,0,0-12.7,1.67l-4.13-9.15a2.47,2.47,0,0,0-2.25-1.45,2.42,2.42,0,0,0-1,.22,2.48,2.48,0,0,0-1.24,3.27l3.91,8.64a54.94,54.94,0,0,0-13.29,7.39l-9.76-4.77a2.51,2.51,0,0,0-1.09-.25,2.47,2.47,0,0,0-1.08,4.69l7.7,3.76c-.35.31-.7.6-1,.92a2.47,2.47,0,1,0,3.34,3.64c30.68-28.11,61.91-4.71,63.22-3.7a2.47,2.47,0,0,0,3.77-2.94l7.06-4.64A2.48,2.48,0,0,0,888.19,377.66Z"/><path class="cls-21" d="M800.31,421.48c6.27-8.74,16.5-15.14,28.08-15.21a34.78,34.78,0,0,1,35,34.57,35.34,35.34,0,0,1-14.64,28.66A169.23,169.23,0,0,1,800.31,421.48Z"/><path class="cls-20" d="M802.56,346.81c1.09-.6,2.05-1.07,3.08-1.55s2-.9,3.06-1.33,2.07-.8,3.11-1.21l3.16-1.06a78.73,78.73,0,0,1,13-3c2.22-.37,4.47-.49,6.72-.68,1.12,0,2.25,0,3.39-.06.56,0,1.13,0,1.7,0l1.7.09a69,69,0,0,1,13.56,2,4.64,4.64,0,0,1-2.07,9.05l-.28-.07-.28-.08a60.33,60.33,0,0,0-11.59-2.54l-1.49-.19-1.5-.09-3-.15c-2,0-4,0-6.06.18A72.85,72.85,0,0,0,816.75,348l-3,.78c-1,.3-2,.58-2.94.9s-1.94.66-2.88,1-1.92.76-2.73,1.13l-.14.06a2.85,2.85,0,0,1-2.53-5.1Z"/><path class="cls-18" d="M889.31,354.32c2.2,3.14,2,7.06-.38,8.75s-6.16.5-8.36-2.65-2-7.06.39-8.75S887.11,351.17,889.31,354.32Z"/><path class="cls-20" d="M1039.82,346.81c-1.09-.6-2-1.07-3.08-1.55s-2-.9-3.07-1.33-2.07-.8-3.1-1.21l-3.16-1.06a79,79,0,0,0-13-3c-2.22-.37-4.47-.49-6.72-.68l-3.39-.06c-.57,0-1.14,0-1.7,0l-1.7.09a68.83,68.83,0,0,0-13.56,2,4.64,4.64,0,1,0,2.07,9.05l.28-.07.27-.08a60.43,60.43,0,0,1,11.6-2.54l1.48-.19,1.5-.09,3-.15c2,0,4,0,6,.18a73.13,73.13,0,0,1,12.07,1.87l3,.78c1,.3,2,.58,2.93.9s1.94.66,2.89,1,1.92.76,2.73,1.13l.14.06a2.85,2.85,0,0,0,2.53-5.1Z"/><path class="cls-18" d="M953.06,354.32c-2.2,3.14-2,7.06.39,8.75s6.15.5,8.35-2.65,2-7.06-.39-8.75S955.26,351.17,953.06,354.32Z"/><path class="cls-14" d="M1118.56,281.2c-32.83-8.81-29.63-43.23-32.83-55.25-12.27-77.93-72.06-103.28-72.06-103.28C879,57.91,799.69,154.23,794.45,164.1a.5.5,0,0,1-.17.2,77.06,77.06,0,0,0-15.53-3c3.54,51.49,20.76,115.86,83.86,122.8a146.64,146.64,0,0,0,58.72-7.48c-1.07,0,49.11-20.28,69.39,35.23,0-1.06,20.28,53.38,84.34,51.24-1.73-.86,54,7.9,90.38-19C1166,301,1132.43,284.45,1118.56,281.2Z"/><path class="cls-14" d="M792.45,204s23.95,108.27-21.32,152.13c-.66-1-41.81-.79-41.81-.79l17.61-94.88,17.6-79.82Z"/><path class="cls-9" d="M698.09,756.67c0,42.32,8.37,85.82,34,88.88,62.89,7.52,50.75-44.11,50.75-86.43s-17.22-76.61-38.45-76.61S698.09,714.36,698.09,756.67Z"/><path class="cls-9" d="M1156.45,756.67c0,42.32-8.37,85.82-34,88.88-62.89,7.52-50.74-44.11-50.74-86.43s17.21-76.61,38.45-76.61S1156.45,714.36,1156.45,756.67Z"/><path class="cls-9" d="M1025.46,581.9c0-13.46-21.58-24.58-42.77-31.1-4.27,17.55-26.13,30.91-52.47,30.91-26.89,0-49.12-13.93-52.71-32-22.5,6.32-47,18-47,32.22L809,931c0,27.15,70.59,44.56,120.78,42.77,55.17-2,109.88-21.05,109.88-42.77Z"/><path class="cls-22" d="M924.09,650.75S831.76,586,771,593c-11.85,3.28-11.31,16-11.31,16Z"/><path class="cls-22" d="M923.45,650.75S1015.78,586,1076.57,593c11.85,3.28,11.31,16,11.31,16Z"/><path class="cls-23" d="M938,644.2l147.47-42.58A13,13,0,0,1,1102,614.45l-5.33,185.62a13,13,0,0,1-10,12.24L947.79,845.49a13,13,0,0,1-16-12.37l-3.2-176.23A13,13,0,0,1,938,644.2Z"/><path class="cls-23" d="M909.09,644.2,761.62,601.62a13,13,0,0,0-16.55,12.83l5.33,185.62a13,13,0,0,0,10,12.24l138.93,33.18a13,13,0,0,0,16-12.37l3.2-176.23A13,13,0,0,0,909.09,644.2Z"/><path class="cls-11" d="M940.69,836c.1,13.22-7.68,15.94-17.16,15.94h0c-9.48,0-17.16-2.72-17.16-15.94V661.83c0-12.9,7.68-15.94,17.16-15.94h0c9.48,0,17.16,3,17.16,15.94Z"/><path class="cls-19" d="M1103.72,689l-29.6,1.68a7.29,7.29,0,0,1-7.67-6.93l-.07-1.41a7.43,7.43,0,0,1,6.94-7.77l29.6-1.68a7.29,7.29,0,0,1,7.67,6.93l.07,1.42A7.43,7.43,0,0,1,1103.72,689Z"/><path class="cls-19" d="M1102.36,738.45,1077,739.89a7.26,7.26,0,0,1-7.62-6.93l-.07-1.41a7.4,7.4,0,0,1,6.9-7.76l25.31-1.45a7.28,7.28,0,0,1,7.63,6.94l.07,1.41A7.41,7.41,0,0,1,1102.36,738.45Z"/><path class="cls-19" d="M1104.74,705.76l-31.44,1.8a7.59,7.59,0,0,1-8-7.2l-.07-1.48a7.71,7.71,0,0,1,7.21-8.06l31.44-1.79a7.57,7.57,0,0,1,8,7.2l.07,1.47A7.7,7.7,0,0,1,1104.74,705.76Z"/><path class="cls-19" d="M1106.27,722.1l-31.44,1.79a7.56,7.56,0,0,1-8-7.2l-.08-1.47a7.73,7.73,0,0,1,7.22-8.07l31.43-1.79a7.57,7.57,0,0,1,8,7.2l.08,1.48A7.72,7.72,0,0,1,1106.27,722.1Z"/><path class="cls-9" d="M1076,686.77c-2,.18-7.42.66-7.86-4.25s5-5.4,7-5.58,3.84,1.87,4.08,4.59S1078,686.59,1076,686.77Z"/><path class="cls-9" d="M1079.14,737.12c-2,.18-7.42.66-7.86-4.25s5-5.4,7-5.58,3.84,1.87,4.08,4.59S1081.15,736.94,1079.14,737.12Z"/><path class="cls-9" d="M1074.59,704.24c-2,0-7.45-.16-7.34-5.1s5.53-4.81,7.56-4.77,3.61,2.29,3.54,5S1076.61,704.29,1074.59,704.24Z"/><path class="cls-9" d="M1076.6,720.75c-2,0-7.45-.17-7.33-5.4s5.54-5.11,7.56-5.07,3.61,2.43,3.54,5.32S1078.62,720.79,1076.6,720.75Z"/><path class="cls-19" d="M742.07,689l29.6,1.68a7.29,7.29,0,0,0,7.67-6.93l.07-1.41a7.43,7.43,0,0,0-6.94-7.77l-29.6-1.68a7.29,7.29,0,0,0-7.67,6.93l-.07,1.42A7.43,7.43,0,0,0,742.07,689Z"/><path class="cls-19" d="M743.43,738.45l25.32,1.44a7.26,7.26,0,0,0,7.62-6.93l.07-1.41a7.4,7.4,0,0,0-6.9-7.76l-25.31-1.45a7.28,7.28,0,0,0-7.63,6.94l-.07,1.41A7.41,7.41,0,0,0,743.43,738.45Z"/><path class="cls-19" d="M741.05,705.76l31.44,1.8a7.59,7.59,0,0,0,8-7.2l.07-1.48a7.71,7.71,0,0,0-7.21-8.06L741.88,689a7.57,7.57,0,0,0-8,7.2l-.07,1.47A7.7,7.7,0,0,0,741.05,705.76Z"/><path class="cls-19" d="M739.52,722.1,771,723.89a7.56,7.56,0,0,0,8-7.2l.08-1.47a7.73,7.73,0,0,0-7.22-8.07l-31.44-1.79a7.56,7.56,0,0,0-8,7.2L732.3,714A7.72,7.72,0,0,0,739.52,722.1Z"/><path class="cls-9" d="M769.81,686.77c2,.18,7.42.66,7.86-4.25s-5-5.4-7-5.58-3.84,1.87-4.08,4.59S767.79,686.59,769.81,686.77Z"/><path class="cls-9" d="M766.65,737.12c2,.18,7.42.66,7.86-4.25s-5-5.4-7-5.58-3.84,1.87-4.08,4.59S764.64,736.94,766.65,737.12Z"/><path class="cls-9" d="M771.2,704.24c2,0,7.45-.16,7.34-5.1s-5.53-4.81-7.56-4.77-3.61,2.29-3.54,5S769.18,704.29,771.2,704.24Z"/><path class="cls-9" d="M769.19,720.75c2,0,7.45-.17,7.33-5.4s-5.54-5.11-7.56-5.07-3.61,2.43-3.55,5.32S767.17,720.79,769.19,720.75Z"/><path class="cls-24" d="M792.43,946s-20.37,83-16.85,125.58l147.95-.08s-9.79-62.71-17.16-125.5Z"/><path class="cls-19" d="M862,1428a182,182,0,0,1,30.81.27c-3.38-47.91-13.09-94-13.09-94s-40.93-3.82-40.66-3.15c-8.41,40.62-12.14,73.27-12.76,99.49C838.23,1430.31,850.09,1428.89,862,1428Z"/><rect class="cls-25" x="1442.97" y="1569.75" width="138.33" height="93.08" rx="13.83" transform="translate(3128.42 104.15) rotate(90)"/><rect class="cls-26" x="1130.7" y="1320.45" width="138.33" height="591.67" transform="translate(2816.16 416.42) rotate(90)"/><polygon class="cls-22" points="904.03 1685.45 904.03 1547.12 715.03 1616.29 904.03 1685.45"/><polygon class="cls-20" points="784.19 1641.6 715.03 1616.29 784.19 1590.98 784.19 1641.6"/><rect class="cls-27" x="1374.49" y="1612.18" width="138.33" height="8.22" transform="translate(3059.95 172.63) rotate(90)"/><rect class="cls-28" x="1155.36" y="1345.1" width="89.02" height="591.67" transform="translate(2840.81 441.07) rotate(90)"/><rect class="cls-13" x="1178.64" y="1368.39" width="42.46" height="591.67" transform="translate(2864.09 464.35) rotate(90)"/><rect class="cls-29" x="1374.49" y="1564.93" width="138.33" height="102.72" transform="translate(3059.95 172.63) rotate(90)"/><rect class="cls-20" x="1346" y="1609.02" width="138.33" height="14.54" transform="translate(3031.45 201.12) rotate(90)"/><rect class="cls-20" x="1381.82" y="1609.02" width="138.33" height="14.54" transform="translate(3067.27 165.31) rotate(90)"/><rect class="cls-20" x="1418.59" y="1609.02" width="138.33" height="14.54" transform="translate(3104.04 128.54) rotate(90)"/><path class="cls-24" d="M1076.86,1052.77s-28.1-27.15-75.92-52l-78,33s0,7.79-11.83,38l162.55-.26A47.53,47.53,0,0,0,1076.86,1052.77Z"/><path class="cls-19" d="M988.14,1527.46l16.88-2.26a99.9,99.9,0,0,1,29.93,7.62c6.57-29.52,4.81-79.56-21.28-162.83.21-.7-40.82,6.48-40.82,6.48s-11.5,98.49,2.62,156A65.28,65.28,0,0,1,988.14,1527.46Z"/><path class="cls-11" d="M988.81,994.18c-31.07-9.39-70.71,8.66-74.46,43.15-7.28,67.11,53.2,347.33,53.2,347.33l56.48-.43,7.48-311.47C1032.94,1025,1019.76,1003.54,988.81,994.18Z"/><path class="cls-30" d="M968.57,1547.2c-7.92,0-13.34-8.51-10.52-16.45,7.22-20.35,25.57-34.81,47.06-34.81s39.85,14.46,47.07,34.81c2.82,7.94-2.6,16.45-10.52,16.45Z"/><path class="cls-20" d="M968.76,1476s-13.77,47.1-11.46,59.77c.05.39,23-12.67,23-12.67S970.25,1491.71,968.76,1476Z"/><path class="cls-20" d="M1037,1476.21s18.19,46.94,15.88,59.61c-.05.39-27.88-12.68-27.88-12.68S1035.53,1491.88,1037,1476.21Z"/><path class="cls-19" d="M866.51,1430.53l-16.94-1.71a47.76,47.76,0,0,0-24.27,6.28,48.92,48.92,0,0,0-5.39,2.33c-7.55-29.28-7.45-79.35,15.86-163.45-.23-.68,41,5.13,41,5.13s14.76,98.05,2.56,156A64.28,64.28,0,0,0,866.51,1430.53Z"/><path class="cls-30" d="M886.73,1449.6c7.92-.26,13-8.95,10-16.79-7.89-20.1-26.71-33.94-48.2-33.22s-39.34,15.77-45.88,36.35c-2.55,8,3.15,16.35,11.06,16.09Z"/><path class="cls-20" d="M884.18,1378.49s15.33,46.62,13.44,59.35c0,.39-23.38-11.89-23.38-11.89S883.2,1394.19,884.18,1378.49Z"/><path class="cls-20" d="M816,1380.92s-16.62,47.52-13.89,60.11c.06.38,27.44-13.6,27.44-13.6S818,1396.53,816,1380.92Z"/><path class="cls-11" d="M828.2,903.83c30.19-11.93,71.19,2.77,77.78,36.84,12.82,66.28-25,354.79-25,354.79H825.4L792.15,985.67C786.78,938.23,798.13,915.72,828.2,903.83Z"/></g></g></svg>