<svg xmlns="http://www.w3.org/2000/svg" viewBox="0 0 271.51 43.39"><defs><style>.cls-1{fill:#6800ef;}.cls-2{fill:#fff;}</style></defs><g id="Camada_2" data-name="Camada 2"><g id="Camada_2-2" data-name="Camada 2"><path class="cls-1" d="M0,43.39V0H12.3V4.44h-7v34.5h7v4.45Z"/><path class="cls-2" d="M39.7,24.86a9.55,9.55,0,0,1-.92,4.35,8.38,8.38,0,0,1-2.58,3,11.42,11.42,0,0,1-4,1.79,20.11,20.11,0,0,1-5,.59,39,39,0,0,1-4.66-.28,27.65,27.65,0,0,1-4.44-.94V27.74c.72.25,1.47.48,2.25.7s1.56.41,2.35.57,1.57.3,2.35.39a19.75,19.75,0,0,0,2.27.14,11.74,11.74,0,0,0,2.78-.28A6,6,0,0,0,32,28.49a3.06,3.06,0,0,0,1.05-1.17,3.37,3.37,0,0,0,.33-1.5,2.78,2.78,0,0,0-.64-1.88,6,6,0,0,0-1.7-1.35,14.91,14.91,0,0,0-2.4-1.05c-.89-.31-1.81-.65-2.73-1a28.89,28.89,0,0,1-2.74-1.21,9.71,9.71,0,0,1-2.4-1.69,7.78,7.78,0,0,1-1.69-2.39,8,8,0,0,1-.65-3.36,8.89,8.89,0,0,1,.66-3.41,7.25,7.25,0,0,1,2.06-2.82,10.41,10.41,0,0,1,3.6-1.92A17.5,17.5,0,0,1,30.07,3c.61,0,1.24,0,1.9.08s1.32.12,2,.21,1.27.19,1.87.3S37,3.85,37.46,4V9.24c-.5-.19-1.05-.36-1.64-.52s-1.2-.29-1.83-.41-1.27-.2-1.91-.26A16.76,16.76,0,0,0,30.26,8a11.15,11.15,0,0,0-2.58.25A5.43,5.43,0,0,0,26,8.88a2.54,2.54,0,0,0-1,1.06,3.23,3.23,0,0,0-.3,1.4A2.33,2.33,0,0,0,25.31,13,6.09,6.09,0,0,0,27,14.23a19,19,0,0,0,2.41,1c.89.32,1.81.66,2.76,1A28.46,28.46,0,0,1,35,17.54a10.88,10.88,0,0,1,2.4,1.71,7.82,7.82,0,0,1,1.71,2.37A7.52,7.52,0,0,1,39.7,24.86Z"/><path class="cls-2" d="M41.85,34.1V29.89l7.22-7.23q2-2,3.27-3.51a18.11,18.11,0,0,0,1.89-2.63,7.3,7.3,0,0,0,.88-2.14,9.64,9.64,0,0,0,.21-2A4.77,4.77,0,0,0,55,10.7a4,4,0,0,0-.82-1.36,3.91,3.91,0,0,0-1.36-.91A5,5,0,0,0,51,8.09a7.18,7.18,0,0,0-3.34.79A12.44,12.44,0,0,0,44.72,11l-3-3.88a16.23,16.23,0,0,1,4.48-3A13.06,13.06,0,0,1,51.58,3a13.66,13.66,0,0,1,4.07.57,8.72,8.72,0,0,1,3.12,1.7,7.56,7.56,0,0,1,2,2.8A9.8,9.8,0,0,1,61.49,12,11.33,11.33,0,0,1,61,15.38a12.87,12.87,0,0,1-1.42,3.07,21.56,21.56,0,0,1-2.31,3Q55.91,23,54.15,24.6l-4.44,4.24H62.59V34.1Z"/><path class="cls-1" d="M68,43.39V38.94h7V4.44H68V0H80.24V43.39Z"/><path class="cls-2" d="M116,26.12A3.76,3.76,0,0,0,114.55,23a17.27,17.27,0,0,0-5.21-2.24,25.13,25.13,0,0,1-6-2.53q-4.26-2.67-4.26-7A7.59,7.59,0,0,1,102.16,5a12.43,12.43,0,0,1,8-2.44,13.49,13.49,0,0,1,5.8,1.2,9.54,9.54,0,0,1,4,3.41,8.75,8.75,0,0,1,1.45,4.91H116a4.89,4.89,0,0,0-1.53-3.82,6.32,6.32,0,0,0-4.38-1.38A6.58,6.58,0,0,0,106,8a3.78,3.78,0,0,0-1.46,3.16A3.41,3.41,0,0,0,106.09,14a18.42,18.42,0,0,0,5.22,2.23,24,24,0,0,1,5.85,2.46,9.41,9.41,0,0,1,3.23,3.16,8.34,8.34,0,0,1,1,4.19,7.42,7.42,0,0,1-3,6.2,13,13,0,0,1-8.1,2.3,15.13,15.13,0,0,1-6.22-1.26,10.41,10.41,0,0,1-4.41-3.45,8.6,8.6,0,0,1-1.57-5.14h5.41a5,5,0,0,0,1.76,4.11,7.68,7.68,0,0,0,5,1.46,6.71,6.71,0,0,0,4.25-1.15A3.68,3.68,0,0,0,116,26.12Z"/><path class="cls-2" d="M124.69,22.36A13.67,13.67,0,0,1,126,16.22,9.83,9.83,0,0,1,129.83,12a10.61,10.61,0,0,1,5.6-1.47,10.12,10.12,0,0,1,7.61,3,11.87,11.87,0,0,1,3.16,8l0,1.22a13.77,13.77,0,0,1-1.32,6.13,9.76,9.76,0,0,1-3.76,4.17,10.81,10.81,0,0,1-5.66,1.48,10,10,0,0,1-7.85-3.27,12.49,12.49,0,0,1-2.94-8.7Zm5.2.44a9.29,9.29,0,0,0,1.48,5.6,4.78,4.78,0,0,0,4.11,2,4.73,4.73,0,0,0,4.09-2.05,10.29,10.29,0,0,0,1.47-6,9.2,9.2,0,0,0-1.51-5.57,5.09,5.09,0,0,0-8.14,0Q129.89,18.78,129.89,22.8Z"/><path class="cls-2" d="M152.45,34.15V14.84h-3.53V11h3.53V8.87a7.94,7.94,0,0,1,2.14-5.95,8.19,8.19,0,0,1,6-2.1,11.91,11.91,0,0,1,2.91.39l-.13,4.07a9.72,9.72,0,0,0-2-.18q-3.72,0-3.72,3.84V11h4.71v3.85h-4.71V34.15Z"/><path class="cls-2" d="M172.67,5.36V11h4.09v3.85h-4.09V27.77a2.88,2.88,0,0,0,.53,1.92,2.43,2.43,0,0,0,1.87.58,8.14,8.14,0,0,0,1.82-.21v4a12.75,12.75,0,0,1-3.42.5q-6,0-6-6.62V14.84h-3.81V11h3.81V5.36Z"/><path class="cls-2" d="M201.08,27l3.68-16h5.07l-6.31,23.16h-4.29l-5-15.9-4.88,15.9h-4.28L178.77,11h5.08l3.74,15.82L192.34,11h3.92Z"/><path class="cls-2" d="M227.14,34.15a8.24,8.24,0,0,1-.6-2.16,8.1,8.1,0,0,1-6.07,2.59,8.21,8.21,0,0,1-5.7-2,6.37,6.37,0,0,1-2.2-4.93A6.55,6.55,0,0,1,215.32,22q2.75-2,7.86-2h3.19V18.48a4.06,4.06,0,0,0-1-2.88,4,4,0,0,0-3.06-1.08,4.57,4.57,0,0,0-2.91.89,2.74,2.74,0,0,0-1.14,2.26h-5.2a5.81,5.81,0,0,1,1.26-3.57,8.54,8.54,0,0,1,3.44-2.6,12.2,12.2,0,0,1,4.85-.94,9.66,9.66,0,0,1,6.48,2,7.27,7.27,0,0,1,2.48,5.74V28.8a11.88,11.88,0,0,0,.88,5v.37Zm-5.71-3.75a5.91,5.91,0,0,0,2.9-.75,5,5,0,0,0,2-2V23.28h-2.8a7.69,7.69,0,0,0-4.35,1,3.26,3.26,0,0,0-1.45,2.85,3,3,0,0,0,1,2.38A3.85,3.85,0,0,0,221.43,30.4Z"/><path class="cls-2" d="M249.15,15.74a13.48,13.48,0,0,0-2.12-.17c-2.39,0-4,.91-4.82,2.74V34.15H237V11h5l.12,2.59a5.88,5.88,0,0,1,5.23-3,4.88,4.88,0,0,1,1.84.3Z"/><path class="cls-2" d="M262.22,34.58a10.73,10.73,0,0,1-8-3.12,11.27,11.27,0,0,1-3.07-8.29v-.64a13.91,13.91,0,0,1,1.33-6.2,10.24,10.24,0,0,1,3.76-4.25,10,10,0,0,1,5.39-1.52,9.09,9.09,0,0,1,7.31,3q2.58,3,2.58,8.54v2.1H256.38a6.9,6.9,0,0,0,1.92,4.53,5.7,5.7,0,0,0,4.22,1.67,7,7,0,0,0,5.82-2.89l2.81,2.68a9.39,9.39,0,0,1-3.72,3.22A11.63,11.63,0,0,1,262.22,34.58Zm-.62-19.84a4.37,4.37,0,0,0-3.45,1.49,7.73,7.73,0,0,0-1.68,4.18h9.9V20A6.28,6.28,0,0,0,265,16.07,4.34,4.34,0,0,0,261.6,14.74Z"/></g></g></svg>